<?xml version="1.0" standalone="no"?>
<!DOCTYPE svg PUBLIC "-//W3C//DTD SVG 20010904//EN"
 "http://www.w3.org/TR/2001/REC-SVG-20010904/DTD/svg10.dtd">
<svg version="1.0" xmlns="http://www.w3.org/2000/svg"
 width="488.000000pt" height="477.000000pt" viewBox="0 0 488.000000 477.000000"
 preserveAspectRatio="xMidYMid meet">

<g transform="translate(0.000000,477.000000) scale(0.100000,-0.100000)"
fill="#000000" stroke="none">
<path d="M2230 4489 c-409 -42 -789 -193 -1125 -448 -80 -61 -262 -238 -340
-331 -238 -285 -402 -652 -462 -1034 -24 -153 -24 -459 0 -616 108 -705 555
-1304 1202 -1610 242 -115 319 -131 374 -76 21 21 25 36 29 105 2 44 1 135 -3
204 l-7 124 -46 -10 c-26 -5 -96 -9 -157 -10 -181 -1 -304 43 -411 148 -49 48
-71 82 -113 170 -71 148 -126 222 -210 284 -121 88 -134 112 -74 138 32 13 48
14 97 5 123 -23 217 -93 311 -232 57 -85 118 -140 194 -177 51 -26 66 -28 171
-28 85 0 131 5 179 19 69 22 66 18 101 132 13 42 37 91 61 123 22 29 39 54 37
55 -2 1 -53 10 -115 20 -534 82 -810 373 -854 899 -22 274 27 466 169 650 l44
58 -17 62 c-36 130 -30 293 18 435 l22 67 75 -1 c114 -2 262 -58 447 -171 l73
-44 117 25 c286 60 590 58 873 -5 l96 -21 64 42 c150 97 328 168 447 177 71 6
71 6 86 -23 52 -104 71 -367 34 -486 l-17 -58 45 -56 c57 -70 118 -190 147
-291 20 -69 23 -100 22 -258 0 -157 -4 -194 -26 -292 -97 -413 -363 -638 -839
-710 l-107 -16 44 -64 c84 -123 87 -145 92 -577 4 -419 3 -415 68 -436 42 -14
68 -9 193 40 284 111 530 271 744 484 329 327 532 728 604 1188 24 154 24 461
0 614 -55 351 -194 682 -404 962 -74 98 -266 296 -363 375 -444 358 -1028 533
-1590 476z"/>
</g>
</svg>
